<?xml version="1.0" encoding="UTF-8" standalone="no"?>
<!-- Created with Inkscape (http://www.inkscape.org/) -->

<svg
   width="50.799999mm"
   height="128.5mm"
   viewBox="0 0 56.444443 142.77778"
   version="1.1"
   id="svg1"
   xmlns="http://www.w3.org/2000/svg"
   xmlns:svg="http://www.w3.org/2000/svg">
  <defs
     id="defs1" />
  <g
     id="layer3"
     transform="matrix(0.73737055,0,0,1,39.18282,0.58716658)">
    <rect
       style="fill:#ffff00;stroke-width:0.436019"
       id="rect1"
       width="76.548279"
       height="142.77777"
       x="-53.138577"
       y="-0.58716655" />
    <path
       d="m -16.320112,65.132574 q 0,0.312042 -0.109214,0.611603 -0.109215,0.29644 -0.312043,0.499268 -0.277718,0.274597 -0.620964,0.415016 -0.340127,0.140419 -0.848756,0.140419 h -0.745781 v 1.513406 h -1.198243 v -4.646312 h 1.972108 q 0.4431,0 0.745781,0.07801 0.305802,0.07489 0.539834,0.227791 0.280838,0.184105 0.427498,0.471184 0.14978,0.287079 0.14978,0.689614 z m -1.238808,0.02808 q 0,-0.196586 -0.106095,-0.337005 -0.106094,-0.14354 -0.246513,-0.199708 -0.187226,-0.07489 -0.36509,-0.08113 -0.177864,-0.0094 -0.474304,-0.0094 h -0.205948 v 1.391709 h 0.343246 q 0.305802,0 0.502389,-0.03745 0.199707,-0.03744 0.333885,-0.14978 0.115456,-0.09985 0.165383,-0.237152 0.05305,-0.140419 0.05305,-0.340127 z m 3.175897,3.151629 h -1.123353 v -3.504237 h 1.123353 z m 0.0312,-4.003505 h -1.185761 v -0.851875 h 1.185761 z m 3.297594,3.972301 q -0.180985,0.04681 -0.383813,0.07177 -0.202827,0.02808 -0.496147,0.02808 -0.655289,0 -0.976693,-0.265236 -0.318283,-0.265236 -0.318283,-0.908044 v -1.638223 h -0.461823 v -0.761384 h 0.461823 v -1.001656 h 1.123352 v 1.001656 h 1.051584 v 0.761384 h -1.051584 v 1.241929 q 0,0.184105 0.0031,0.321404 0.0031,0.137299 0.04993,0.246513 0.04369,0.109215 0.1529,0.174744 0.112336,0.06241 0.324525,0.06241 0.08737,0 0.227791,-0.03745 0.143539,-0.03745 0.199707,-0.06865 h 0.09361 z m 2.5237276,0.124817 q -0.4587025,0 -0.8393943,-0.109215 -0.3775714,-0.109215 -0.6584093,-0.337006 -0.277718,-0.227791 -0.430619,-0.574158 -0.152901,-0.346367 -0.152901,-0.81131 0,-0.489907 0.162262,-0.845635 0.165383,-0.355729 0.4587028,-0.589761 0.2839587,-0.22155 0.6552892,-0.324524 0.3713305,-0.102974 0.7707449,-0.102974 0.3588488,0 0.66153,0.07801 0.3026812,0.07801 0.5647969,0.202828 v 0.95797 h -0.1591417 q -0.065529,-0.05617 -0.1591416,-0.131058 -0.090492,-0.07489 -0.2246706,-0.14666 -0.1279374,-0.06865 -0.2808382,-0.112335 -0.1529008,-0.04681 -0.3557284,-0.04681 -0.4493412,0 -0.6927343,0.28708 -0.2402727,0.283958 -0.2402727,0.773865 0,0.505509 0.2465135,0.767624 0.249634,0.262116 0.705216,0.262116 0.2121889,0 0.3806918,-0.04681 0.1716234,-0.04993 0.2839587,-0.115456 0.1060944,-0.06241 0.1872255,-0.131058 0.081131,-0.06865 0.1497803,-0.134178 h 0.1591417 v 0.95797 q -0.2652361,0.124817 -0.5554356,0.196587 -0.2870791,0.07489 -0.6365666,0.07489 z m 5.481891,-0.09361 H -4.1782002 V 66.57421 q 0,-0.212189 -0.021843,-0.421258 -0.021843,-0.212188 -0.07489,-0.312042 -0.062409,-0.115456 -0.1841051,-0.168503 -0.1185761,-0.05305 -0.3338854,-0.05305 -0.1529009,0 -0.3120425,0.04993 -0.1560212,0.04993 -0.3401263,0.159141 v 2.483858 h -1.1233529 v -4.85538 h 1.1233529 v 1.738076 q 0.2995608,-0.234032 0.5741581,-0.358849 0.2777178,-0.124817 0.6147237,-0.124817 0.5679173,0 0.8862006,0.330765 0.3214038,0.330765 0.3214038,0.989175 z"
       id="text5"
       style="font-weight:738;font-size:6.39063px;line-height:2.7;font-family:'.CJK Symbols Fallback MO';-inkscape-font-specification:'.CJK Symbols Fallback MO weight=738';text-align:center;letter-spacing:0.0273884px;text-anchor:middle;stroke-width:0.342355"
       transform="scale(1.1645472,0.85870284)"
       aria-label="Pitch" />
    <path
       d="m -24.783392,113.78251 -1.694393,4.64632 h -1.341785 l -1.694393,-4.64632 h 1.257533 l 1.123355,3.26397 1.123354,-3.26397 z m 2.79521,4.73682 q -0.517991,0 -0.957972,-0.15291 -0.43686,-0.1529 -0.752024,-0.45558 -0.315163,-0.30268 -0.489907,-0.75514 -0.171624,-0.45246 -0.171624,-1.04535 0,-0.55231 0.165383,-1.00165 0.165383,-0.44935 0.480546,-0.77075 0.302682,-0.30892 0.748903,-0.47743 0.449342,-0.1685 0.979815,-0.1685 0.293321,0 0.527353,0.0343 0.237152,0.0312 0.43686,0.0842 0.209069,0.0593 0.377572,0.13418 0.171624,0.0718 0.299561,0.13417 v 1.12648 h -0.137299 q -0.08737,-0.0749 -0.22155,-0.17787 -0.131058,-0.10297 -0.299561,-0.20282 -0.171624,-0.0999 -0.371332,-0.16851 -0.199707,-0.0686 -0.427498,-0.0686 -0.252755,0 -0.480547,0.0811 -0.227791,0.078 -0.421258,0.26211 -0.184105,0.17787 -0.299561,0.47119 -0.112335,0.29332 -0.112335,0.71145 0,0.43686 0.121696,0.73018 0.124818,0.29333 0.312043,0.46183 0.190347,0.17162 0.424379,0.24651 0.234032,0.0718 0.461823,0.0718 0.218431,0 0.43062,-0.0655 0.215309,-0.0655 0.396294,-0.17786 0.152901,-0.0905 0.283959,-0.19347 0.131058,-0.10297 0.21531,-0.17786 h 0.124817 v 1.11087 q -0.174744,0.078 -0.333886,0.14666 -0.159142,0.0687 -0.333886,0.11858 -0.227791,0.0655 -0.427499,0.0999 -0.199707,0.0343 -0.549195,0.0343 z m 5.775219,-4.94589 -2.4745,5.86641 h -0.957972 l 2.465139,-5.86641 z m 4.548891,4.85539 h -3.101707 v -0.81131 h 0.979815 v -2.45578 h -0.979815 v -0.75826 q 0.224671,0 0.430619,-0.025 0.205948,-0.0281 0.343247,-0.0936 0.162263,-0.078 0.243394,-0.20283 0.08113,-0.12481 0.09361,-0.31204 h 1.032862 v 3.84749 h 0.957972 z m 4.7517188,-1.75056 q 0,0.86436 -0.5055096,1.36363 -0.5023892,0.49615 -1.4135546,0.49615 -0.9111654,0 -1.4166746,-0.49615 -0.50239,-0.49927 -0.50239,-1.36363 0,-0.8706 0.50551,-1.36675 0.50863,-0.49614 1.4135546,-0.49614 0.9174063,0 1.416675,0.49926 0.5023892,0.49927 0.5023892,1.36363 z m -1.3823503,0.85188 q 0.109215,-0.13418 0.1622623,-0.3214 0.056168,-0.19035 0.056168,-0.52424 0,-0.30892 -0.056168,-0.51799 -0.056168,-0.20907 -0.1560215,-0.33388 -0.099854,-0.12794 -0.240273,-0.18099 -0.1404194,-0.053 -0.3026817,-0.053 -0.1622623,0 -0.2902,0.0437 -0.1248171,0.0437 -0.240273,0.17474 -0.1029742,0.1217 -0.1653828,0.33389 -0.059288,0.21219 -0.059288,0.53359 0,0.28708 0.053047,0.49927 0.053047,0.20907 0.1560215,0.33701 0.099854,0.12169 0.2371527,0.17786 0.1404193,0.0562 0.3182838,0.0562 0.152901,0 0.2901999,-0.0499 0.1404194,-0.053 0.2371527,-0.17474 z m 4.0402613,0.9923 q -0.4587031,0 -0.8393955,-0.10922 -0.377572,-0.10921 -0.6584107,-0.33701 -0.2777182,-0.22779 -0.4306192,-0.57415 -0.1529011,-0.34637 -0.1529011,-0.81132 0,-0.4899 0.1622623,-0.84563 0.1653828,-0.35573 0.4587032,-0.58976 0.2839591,-0.22155 0.6552902,-0.32453 0.3713311,-0.10297 0.7707461,-0.10297 0.3588494,0 0.6615311,0.078 0.3026817,0.078 0.5647977,0.20283 v 0.95797 H -3.22158 q -0.065529,-0.0562 -0.1591419,-0.13106 -0.090492,-0.0749 -0.2246709,-0.14666 -0.1279376,-0.0687 -0.2808387,-0.11234 -0.152901,-0.0468 -0.3557289,-0.0468 -0.4493419,0 -0.6927354,0.28708 -0.2402731,0.28396 -0.2402731,0.77386 0,0.50551 0.246514,0.76763 0.2496343,0.26212 0.705217,0.26212 0.2121892,0 0.3806924,-0.0468 0.1716237,-0.0499 0.2839591,-0.11546 0.1060946,-0.0624 0.1872258,-0.13105 0.081131,-0.0687 0.1497806,-0.13418 h 0.1591419 v 0.95797 q -0.2652365,0.12482 -0.5554364,0.19659 -0.2870795,0.0749 -0.6365677,0.0749 z m 4.20252137,-0.12482 q -0.18098491,0.0468 -0.38381284,0.0718 -0.20282792,0.0281 -0.4961483,0.0281 -0.65529023,0 -0.97669443,-0.26523 -0.3182838,-0.26524 -0.3182838,-0.90805 v -1.63822 h -0.4618236 v -0.76139 h 0.4618236 v -1.00166 h 1.1233546 v 1.00166 h 1.05158477 v 0.76139 H -1.1035056 v 1.24193 q 0,0.1841 0.00312,0.3214 0.00312,0.1373 0.049927,0.24651 0.043686,0.10922 0.15290106,0.17475 0.11233546,0.0624 0.32452467,0.0624 0.087372,0 0.22779136,-0.0374 0.14353976,-0.0374 0.19970749,-0.0687 h 0.09361289 z"
       id="text6"
       style="font-weight:738;font-size:6.39064px;line-height:2.7;font-family:'.CJK Symbols Fallback MO';-inkscape-font-specification:'.CJK Symbols Fallback MO weight=738';text-align:center;letter-spacing:0.0273884px;text-anchor:middle;stroke-width:0.342355"
       transform="scale(1.1645472,0.85870283)"
       aria-label="VC/1oct&#10;" />
    <path
       d="m -16.166057,143.05653 q 0,0.68649 -0.583521,1.11711 -0.580399,0.4275 -1.578937,0.4275 -0.577279,0 -1.007899,-0.0998 -0.427499,-0.10297 -0.80195,-0.259 v -1.11399 h 0.131058 q 0.371331,0.29644 0.830034,0.45558 0.461824,0.15914 0.886202,0.15914 0.109215,0 0.28708,-0.0187 0.177864,-0.0187 0.2902,-0.0624 0.137299,-0.0562 0.224671,-0.14042 0.09049,-0.0842 0.09049,-0.24963 0,-0.1529 -0.131058,-0.26212 -0.127938,-0.11233 -0.377572,-0.17162 -0.262116,-0.0624 -0.555436,-0.11546 -0.2902,-0.0562 -0.546076,-0.14041 -0.58664,-0.19035 -0.845636,-0.51488 -0.255875,-0.32764 -0.255875,-0.81131 0,-0.64905 0.5804,-1.05782 0.58352,-0.4119 1.497806,-0.4119 0.458703,0 0.904924,0.0905 0.449342,0.0874 0.776987,0.22155 v 1.07031 H -16.4781 q -0.280839,-0.22467 -0.689615,-0.37445 -0.405656,-0.1529 -0.830034,-0.1529 -0.149781,0 -0.299562,0.0218 -0.14666,0.0187 -0.283959,0.0749 -0.121696,0.0468 -0.209068,0.14354 -0.08737,0.0936 -0.08737,0.21531 0,0.18411 0.14042,0.28396 0.140419,0.0967 0.530473,0.17786 0.255875,0.0531 0.489907,0.10298 0.237153,0.0499 0.50863,0.1373 0.533594,0.17474 0.786349,0.47742 0.255875,0.29956 0.255875,0.78011 z m 1.909007,1.46036 h -1.123354 v -3.50424 h 1.123354 z m 0.0312,-4.00351 h -1.185764 v -0.85188 h 1.185764 z m 4.5769743,4.00351 h -1.1295953 v -1.73808 q 0,-0.21219 -0.02184,-0.42126 -0.02184,-0.21219 -0.07489,-0.31204 -0.06241,-0.11545 -0.184105,-0.1685 -0.118576,-0.0531 -0.333886,-0.0531 -0.152901,0 -0.312043,0.0499 -0.156021,0.0499 -0.340127,0.15914 v 2.48386 h -1.123354 v -3.50424 h 1.123354 v 0.38693 q 0.299562,-0.23403 0.574159,-0.35885 0.277719,-0.12481 0.614725,-0.12481 0.567918,0 0.8862021,0.33076 0.3214042,0.33077 0.3214042,0.98918 z m 4.5114459,-1.54461 h -2.571234 q 0.024963,0.4119 0.3120429,0.63033 0.2902,0.21843 0.8518773,0.21843 0.355729,0 0.689615,-0.12794 0.3338859,-0.12794 0.5273526,-0.2746 h 0.1248171 v 0.9018 q -0.3806924,0.15291 -0.7176988,0.22155 -0.3370064,0.0686 -0.7457826,0.0686 -1.0547052,0 -1.6163826,-0.4743 -0.5616773,-0.47431 -0.5616773,-1.35115 0,-0.86748 0.530473,-1.37299 0.5335935,-0.50863 1.4603611,-0.50863 0.8549977,0 1.285617,0.43374 0.4306193,0.43062 0.4306193,1.24193 z m -1.1171138,-0.65841 q -0.00936,-0.35261 -0.1747441,-0.53047 -0.1653828,-0.17787 -0.5148709,-0.17787 -0.3245246,0 -0.5335934,0.1685 -0.2090688,0.16851 -0.2340322,0.53984 z"
       id="text8"
       style="font-weight:738;font-size:6.39064px;line-height:2.7;font-family:'.CJK Symbols Fallback MO';-inkscape-font-specification:'.CJK Symbols Fallback MO weight=738';text-align:center;letter-spacing:0.0273884px;text-anchor:middle;stroke-width:0.342355"
       transform="scale(1.1645472,0.85870283)"
       aria-label="Sine" />
  </g>
  <g
     id="layer2"
     transform="translate(14.485294)">
    <path
       style="fill:#1a1a1a;stroke-width:0.107867"
       id="path4"
       d="m 15.953737,114.52052 a 2.2222223,2.2222223 0 0 1 -2.333111,2.06416 2.2222223,2.2222223 0 0 1 -2.104567,-2.29673 2.2222223,2.2222223 0 0 1 2.259652,-2.14433 2.2222223,2.2222223 0 0 1 2.183439,2.22188 h -2.222222 z" />
    <path
       style="fill:#1a1a1a;stroke-width:0.107867"
       id="path3"
       d="m 15.953736,93.46137 a 2.2222223,2.2222223 0 0 1 -2.333111,2.064159 2.2222223,2.2222223 0 0 1 -2.104566,-2.296728 2.2222223,2.2222223 0 0 1 2.259651,-2.144329 2.2222223,2.2222223 0 0 1 2.18344,2.221884 h -2.222223 z" />
    <path
       style="fill:#1a1a1a;stroke-width:0.107867"
       id="path2"
       d="m 15.953736,48.218465 a 2.2222223,2.2222223 0 0 1 -2.333111,2.064159 2.2222223,2.2222223 0 0 1 -2.104566,-2.296728 2.2222223,2.2222223 0 0 1 2.259651,-2.144329 2.2222223,2.2222223 0 0 1 2.18344,2.221884 h -2.222223 z" />
    <path
       style="fill:#ff0000;stroke-width:0.0539335"
       id="path1"
       d="m 13.734221,12.17816 a 1.1111111,1.1111109 0 0 1 -1.166556,1.032081 1.1111111,1.1111109 0 0 1 -1.052282,-1.148365 1.1111111,1.1111109 0 0 1 1.129825,-1.072166 1.1111111,1.1111109 0 0 1 1.09172,1.110942 h -1.111112 z" />
  </g>
</svg>
