<?xml version="1.0" encoding="UTF-8" standalone="no"?>
<!-- Created with Inkscape (http://www.inkscape.org/) -->

<svg
   width="50.799999mm"
   height="128.5mm"
   viewBox="0 0 56.444443 142.77778"
   version="1.1"
   id="svg1"
   xmlns="http://www.w3.org/2000/svg"
   xmlns:svg="http://www.w3.org/2000/svg">
  <defs
     id="defs1" />
  <g
     id="layer3"
     transform="matrix(0.73737055,0,0,1,39.18282,0.58716658)">
    <rect
       style="fill:#ffff00;stroke-width:0.436019"
       id="rect1"
       width="76.548279"
       height="142.77777"
       x="-53.138577"
       y="-0.58716655" />
    <path
       d="m -17.419486,122.13377 h -0.964627 v -4.16933 h 0.964627 z m 1.899184,0 h -0.964628 v -3.0091 h 0.964628 z m 0.02679,-3.43782 h -1.018218 v -0.73151 h 1.018218 z m 3.833798,3.09217 q 0,0.42336 -0.120578,0.71275 -0.120579,0.28939 -0.33762,0.45284 -0.217041,0.16613 -0.525186,0.23847 -0.305466,0.075 -0.691317,0.075 -0.313504,0 -0.618969,-0.0375 -0.302786,-0.0375 -0.525187,-0.0911 v -0.75294 h 0.117899 q 0.176849,0.0697 0.431403,0.12594 0.254555,0.0589 0.455519,0.0589 0.267952,0 0.434082,-0.0509 0.16881,-0.0482 0.257235,-0.13933 0.08306,-0.0857 0.120578,-0.21972 0.03751,-0.13398 0.03751,-0.32154 v -0.0563 q -0.174169,0.14201 -0.385851,0.22508 -0.211682,0.0831 -0.471596,0.0831 -0.632367,0 -0.975345,-0.38049 -0.342979,-0.38049 -0.342979,-1.15755 0,-0.37246 0.104501,-0.64309 0.104502,-0.27063 0.294748,-0.47159 0.176848,-0.18757 0.434082,-0.29207 0.259914,-0.1045 0.530545,-0.1045 0.243837,0 0.442121,0.0589 0.200964,0.0563 0.364415,0.15809 l 0.03483,-0.13398 h 0.935153 z m -0.964628,-0.6029 v -1.36387 q -0.08307,-0.0348 -0.203643,-0.0536 -0.120579,-0.0214 -0.217042,-0.0214 -0.380492,0 -0.570738,0.21972 -0.190246,0.21704 -0.190246,0.60825 0,0.43408 0.160772,0.60557 0.16345,0.17149 0.482313,0.17149 0.144695,0 0.28403,-0.0455 0.139335,-0.0456 0.254554,-0.12058 z m 4.9216841,0.94855 h -0.969987 v -1.49249 q 0,-0.18221 -0.01876,-0.36174 -0.01876,-0.1822 -0.06431,-0.26795 -0.05359,-0.0991 -0.158092,-0.14469 -0.101821,-0.0456 -0.286708,-0.0456 -0.131297,0 -0.267953,0.0429 -0.133976,0.0429 -0.292067,0.13665 v 2.1329 h -0.9646281 v -4.16933 h 0.9646281 v 1.49249 q 0.257234,-0.20096 0.493032,-0.30814 0.238477,-0.10718 0.527865,-0.10718 0.487673,0 0.760984,0.28403 0.275991,0.28402 0.275991,0.8494 z m 2.8343373,-0.0268 q -0.155412,0.0402 -0.329581,0.0616 -0.174169,0.0241 -0.426044,0.0241 -0.5627,0 -0.83869,-0.22776 -0.273312,-0.22776 -0.273312,-0.77974 v -1.40675 h -0.3965693 v -0.6538 h 0.3965693 v -0.86013 h 0.964628 v 0.86013 h 0.902999 v 0.6538 h -0.902999 v 1.06645 q 0,0.1581 0.0027,0.27599 0.0027,0.1179 0.04287,0.21169 0.03751,0.0938 0.131296,0.15005 0.09646,0.0536 0.278671,0.0536 0.07503,0 0.195605,-0.0322 0.123258,-0.0322 0.171489,-0.059 h 0.08039 z"
       id="text6"
       style="font-weight:738;font-size:5.48766px;line-height:2.7;font-family:'.CJK Symbols Fallback MO';-inkscape-font-specification:'.CJK Symbols Fallback MO weight=738';text-align:center;letter-spacing:0.0235185px;text-anchor:middle;fill:#1a1a1a;stroke-width:0.293981"
       aria-label="light" />
    <path
       d="m -17.817634,55.833132 h -0.964628 v -4.169335 h 0.964628 z m 1.899184,0 h -0.964628 V 52.82403 h 0.964628 z m 0.02679,-3.437826 h -1.018218 v -0.731509 h 1.018218 z m 3.833798,3.092168 q 0,0.423364 -0.120579,0.712753 -0.120578,0.289388 -0.337619,0.452839 -0.217041,0.16613 -0.525186,0.238477 -0.305466,0.07503 -0.691317,0.07503 -0.313504,0 -0.618969,-0.03751 -0.302786,-0.03751 -0.525187,-0.0911 v -0.752946 h 0.117899 q 0.176849,0.06967 0.431403,0.125938 0.254555,0.05895 0.455519,0.05895 0.267952,0 0.434082,-0.05091 0.16881,-0.04823 0.257234,-0.139335 0.08307,-0.08574 0.120579,-0.219721 0.03751,-0.133976 0.03751,-0.321542 v -0.05627 q -0.174169,0.142015 -0.385851,0.22508 -0.211682,0.08306 -0.471596,0.08306 -0.632367,0 -0.975345,-0.380492 -0.342979,-0.380492 -0.342979,-1.157553 0,-0.372454 0.104501,-0.643086 0.104501,-0.270631 0.294748,-0.471595 0.176848,-0.187567 0.434082,-0.292068 0.259914,-0.104501 0.530545,-0.104501 0.243837,0 0.442121,0.05895 0.200964,0.05627 0.364415,0.158092 l 0.03483,-0.133976 h 0.935153 z m -0.964628,-0.602892 v -1.363877 q -0.08307,-0.03483 -0.203643,-0.05359 -0.120579,-0.02144 -0.217042,-0.02144 -0.380492,0 -0.570738,0.21972 -0.190246,0.217042 -0.190246,0.608252 0,0.434082 0.160772,0.605572 0.16345,0.171489 0.482313,0.171489 0.144695,0 0.28403,-0.04555 0.139335,-0.04555 0.254554,-0.120578 z m 4.9216841,0.94855 h -0.969987 v -1.492493 q 0,-0.182208 -0.01876,-0.361736 -0.01876,-0.182207 -0.06431,-0.267952 -0.05359,-0.09914 -0.158092,-0.144694 -0.101821,-0.04555 -0.286708,-0.04555 -0.131297,0 -0.267953,0.04287 -0.1339761,0.04287 -0.2920671,0.136655 v 2.132899 h -0.964628 v -4.169335 h 0.964628 v 1.492493 q 0.2572341,-0.200964 0.4930321,-0.308145 0.238477,-0.10718 0.527865,-0.10718 0.487673,0 0.760984,0.284029 0.275991,0.284029 0.275991,0.849408 z m 2.8343366,-0.02679 q -0.155413,0.04019 -0.329581,0.06163 -0.174169,0.02412 -0.426044,0.02412 -0.5627,0 -0.8386906,-0.22776 -0.273311,-0.227759 -0.273311,-0.77974 v -1.406749 h -0.396569 V 52.82404 h 0.396569 v -0.860127 h 0.9646276 v 0.860127 h 0.902999 v 0.653803 h -0.902999 v 1.066449 q 0,0.158092 0.0027,0.275991 0.0027,0.117899 0.04287,0.211682 0.03751,0.09378 0.131296,0.150054 0.09646,0.05359 0.278671,0.05359 0.07503,0 0.195605,-0.03215 0.123258,-0.03215 0.171489,-0.05895 h 0.08039 z"
       id="text5"
       style="font-weight:738;font-size:5.48766px;line-height:2.7;font-family:'.CJK Symbols Fallback MO';-inkscape-font-specification:'.CJK Symbols Fallback MO weight=738';text-align:center;letter-spacing:0.0235185px;text-anchor:middle;fill:#1a1a1a;stroke-width:0.293981"
       aria-label="light" />
    <path
       d="m -17.419488,20.230747 h -0.964627 v -4.169335 h 0.964627 z m 1.899184,0 h -0.964628 v -3.009102 h 0.964628 z m 0.02679,-3.437826 h -1.018218 v -0.731509 h 1.018218 z m 3.833798,3.092168 q 0,0.423364 -0.120578,0.712753 -0.120579,0.289388 -0.33762,0.452839 -0.217041,0.16613 -0.525186,0.238477 -0.305465,0.07503 -0.691317,0.07503 -0.313504,0 -0.618969,-0.03751 -0.302786,-0.03751 -0.525186,-0.0911 v -0.752946 h 0.117899 q 0.176848,0.06967 0.431403,0.125938 0.254554,0.05895 0.455518,0.05895 0.267952,0 0.434083,-0.05091 0.16881,-0.04823 0.257234,-0.139335 0.08306,-0.08574 0.120578,-0.219721 0.03751,-0.133976 0.03751,-0.321542 v -0.05627 q -0.174169,0.142015 -0.385851,0.22508 -0.211683,0.08306 -0.471596,0.08306 -0.632367,0 -0.975346,-0.380492 -0.342979,-0.380492 -0.342979,-1.157553 0,-0.372454 0.104502,-0.643086 0.104501,-0.270631 0.294747,-0.471595 0.176848,-0.187567 0.434082,-0.292068 0.259914,-0.104502 0.530546,-0.104502 0.243836,0 0.442121,0.05895 0.200964,0.05627 0.364415,0.158092 l 0.03483,-0.133976 h 0.935153 z m -0.964622,-0.602892 V 17.91832 q -0.08307,-0.03483 -0.203644,-0.05359 -0.120578,-0.02144 -0.217041,-0.02144 -0.380492,0 -0.570738,0.21972 -0.190246,0.217042 -0.190246,0.608252 0,0.434082 0.160771,0.605572 0.163451,0.171489 0.482314,0.171489 0.144694,0 0.284029,-0.04555 0.139335,-0.04555 0.254555,-0.120578 z m 4.9216831,0.94855 h -0.969986 v -1.492493 q 0,-0.182208 -0.01876,-0.361736 -0.01876,-0.182207 -0.06431,-0.267952 -0.05359,-0.09914 -0.158092,-0.144694 -0.101822,-0.04555 -0.286709,-0.04555 -0.131297,0 -0.267952,0.04287 -0.133976,0.04287 -0.292068,0.136655 v 2.132899 H -10.72516 v -4.169335 h 0.9646281 v 1.492493 q 0.257234,-0.200964 0.493032,-0.308145 0.238477,-0.107181 0.527866,-0.107181 0.487673,0 0.760984,0.28403 0.27599,0.284029 0.27599,0.849408 z m 2.8343363,-0.02679 q -0.155412,0.04019 -0.329581,0.06163 -0.174169,0.02412 -0.426044,0.02412 -0.562699,0 -0.83869,-0.22776 -0.273311,-0.227759 -0.273311,-0.77974 v -1.406749 h -0.3965683 v -0.653803 h 0.3965683 v -0.860127 h 0.964627 v 0.860127 h 0.902999 v 0.653803 h -0.902999 v 1.066449 q 0,0.158092 0.0027,0.275991 0.0027,0.117899 0.04287,0.211682 0.03751,0.09378 0.131297,0.150054 0.09646,0.05359 0.27867,0.05359 0.07503,0 0.195605,-0.03215 0.123258,-0.03215 0.171489,-0.05895 h 0.08039 z"
       id="text4"
       style="font-weight:738;font-size:5.48766px;line-height:2.7;font-family:'.CJK Symbols Fallback MO';-inkscape-font-specification:'.CJK Symbols Fallback MO weight=738';text-align:center;letter-spacing:0.0235185px;text-anchor:middle;fill:#1a1a1a;stroke-width:0.293981"
       aria-label="light" />
  </g>
  <g
     id="layer2"
     transform="translate(14.485294)">
    <path
       style="fill:#1a1a1a;stroke-width:0.107867"
       id="path1"
       d="m 18.175959,13.366779 a 2.2222223,2.2222223 0 0 1 -2.333111,2.064162 2.2222223,2.2222223 0 0 1 -2.104566,-2.296731 2.2222223,2.2222223 0 0 1 2.259651,-2.14433 2.2222223,2.2222223 0 0 1 2.18344,2.221884 H 15.95915 Z" />
    <path
       style="fill:#1a1a1a;stroke-width:0.107867"
       id="path3"
       d="m 17.295209,99.399501 a 2.2222223,2.2222223 0 0 1 -2.333111,2.064159 2.2222223,2.2222223 0 0 1 -2.104566,-2.296728 2.2222223,2.2222223 0 0 1 2.259651,-2.144329 2.2222223,2.2222223 0 0 1 2.18344,2.221884 H 15.0784 Z" />
    <path
       style="fill:#1a1a1a;stroke-width:0.107867"
       id="path4"
       d="m 18.17596,114.52052 a 2.2222223,2.2222223 0 0 1 -2.333111,2.06416 2.2222223,2.2222223 0 0 1 -2.104567,-2.29673 2.2222223,2.2222223 0 0 1 2.259652,-2.14433 2.2222223,2.2222223 0 0 1 2.183439,2.22188 h -2.222222 z" />
  </g>
</svg>
