<?xml version="1.0" encoding="UTF-8" standalone="no"?>
<!-- Created with Inkscape (http://www.inkscape.org/) -->

<svg
   width="50.799999mm"
   height="128.5mm"
   viewBox="0 0 56.444443 142.77778"
   version="1.1"
   id="svg1"
   xmlns="http://www.w3.org/2000/svg"
   xmlns:svg="http://www.w3.org/2000/svg">
  <defs
     id="defs1" />
  <g
     id="layer3"
     transform="matrix(0.73737055,0,0,1,39.18282,0.58716658)">
    <rect
       style="fill:#ffff00;stroke-width:0.436019"
       id="rect1"
       width="76.548279"
       height="142.77777"
       x="-53.138577"
       y="-0.58716655" />
    <path
       d="m -18.700966,105.53742 0.0091,-0.0145 0.0091,-0.0145 0.0091,-0.0145 0.0091,-0.0147 0.0091,-0.0145 0.0091,-0.0145 0.0091,-0.0145 0.0091,-0.0145 0.0091,-0.0145 0.0091,-0.0145 0.0091,-0.0147 0.0091,-0.0145 0.0091,-0.0145 0.0091,-0.0145 0.0091,-0.0145 0.0091,-0.0145 0.0091,-0.0145 0.0091,-0.0147 0.0091,-0.0145 0.0091,-0.0145 0.0091,-0.0145 0.0091,-0.0145 0.0091,-0.0145 0.0091,-0.0145 0.0091,-0.0147 0.0091,-0.0145 0.0091,-0.0145 0.0091,-0.0145 0.0091,-0.0145 0.0091,-0.0145 0.0091,-0.0145 0.0091,-0.0147 0.0091,-0.0145 0.0091,-0.0145 0.0091,-0.0145 0.0091,-0.0145 0.0091,-0.0145 0.0091,-0.0145 0.0091,-0.0147 0.0091,-0.0145 0.0091,-0.0145 0.0091,-0.0145 0.0091,-0.0145 0.0091,-0.0145 0.0091,-0.0145 0.0091,-0.0147 0.0091,-0.0145 0.0091,-0.0145 0.0091,-0.0145 0.0091,-0.0145 0.0091,-0.0145 0.0091,-0.0147 0.0091,-0.0145 0.0091,-0.0145 0.0091,-0.0145 0.0091,-0.0145 0.0091,-0.0145 0.0091,-0.0145 0.0091,-0.0147 0.0091,-0.0145 0.0091,-0.0145 0.0091,-0.0145 0.0091,-0.0145 0.0091,-0.0145 0.0091,-0.0145 0.0091,-0.0147 0.0091,-0.0145 0.0091,-0.0145 0.0091,-0.0145 0.0091,-0.0145 0.0091,-0.0145 0.0091,-0.0145 0.0091,-0.0147 0.0091,-0.0145 0.0091,-0.0145 0.0091,-0.0145 0.0091,-0.0145 0.0091,-0.0145 0.0091,-0.0145 0.0091,-0.0147 0.0091,-0.0145 0.0091,-0.0145 0.0091,-0.0145 0.0091,-0.0145 0.0091,-0.0145 0.0091,-0.0145 0.0091,-0.0147 0.0091,-0.0145 0.0091,-0.0145 0.0091,-0.0145 0.0091,-0.0145 0.0091,-0.0145 0.0091,-0.0145 0.0091,-0.0147 0.0091,-0.0145 0.0091,-0.0145 0.0091,-0.0145 0.0091,-0.0145 0.0091,-0.0145 0.0091,-0.0145 0.0091,-0.0147 0.0091,-0.0145 0.0091,-0.0145 0.0091,-0.0145 0.0091,-0.0145 0.0091,-0.0145 0.0091,-0.0145 0.0091,-0.0147 0.0091,-0.0145 0.0091,-0.0145 0.0091,-0.0145 0.0091,-0.0145 0.0091,-0.0145 0.0091,-0.0145 0.0091,-0.0147 0.0091,-0.0145 0.0091,-0.0145 0.0091,-0.0145 0.0091,-0.0145 0.0091,-0.0145 0.0091,-0.0145 0.0091,-0.0147 0.0091,-0.0145 0.0091,-0.0145 0.0091,-0.0145 0.0091,-0.0145 0.0091,-0.0145 0.0091,-0.0145 0.0091,-0.0147 0.0091,-0.0145 0.0091,-0.0145 0.0091,-0.0145 0.0091,-0.0145 0.0091,-0.0145 0.0091,-0.0145 0.0091,-0.0147 0.0091,-0.0145 0.0091,-0.0145 0.0091,-0.0145 0.0091,-0.0145 0.0091,-0.0145 0.0091,-0.0145 0.0091,-0.0147 0.0091,-0.0145 0.0091,-0.0145 0.0091,-0.0145 0.0091,-0.0145 0.0091,-0.0145 0.0091,-0.0145 0.0091,-0.0147 0.0091,-0.0145 0.0091,-0.0145 0.0091,-0.0145 0.0091,-0.0145 0.0091,-0.0145 0.0091,-0.0147 0.0091,-0.0145 0.0091,-0.0145 0.0091,-0.0145 0.0091,-0.0145 0.0091,-0.0145 0.0091,-0.0145 0.0091,-0.0147 0.0091,-0.0145 0.0091,-0.0145 0.0091,-0.0145 0.0091,-0.0145 0.0091,-0.0145 0.0091,-0.0145 0.0091,-0.0147 0.0091,-0.0145 0.0091,-0.0145 0.0091,-0.0145 0.0091,-0.0145 0.0091,-0.0145 0.0091,-0.0145 0.0091,-0.0147 0.0091,-0.0145 0.0091,-0.0145 0.0091,-0.0145 0.0091,-0.0145 0.0091,-0.0145 0.0091,-0.0145 0.0091,-0.0147 0.0091,-0.0145 0.0091,-0.0145 0.0091,-0.0145 0.0091,-0.0145 0.0091,-0.0145 0.0091,-0.0145 0.0091,-0.0147 0.0091,-0.0145 0.0091,-0.0145 0.0091,-0.0145 0.0091,-0.0145 0.0091,-0.0145 0.0091,-0.0145 0.0091,-0.0147 0.0091,-0.0145 0.0091,-0.0145 0.0091,-0.0145 0.0091,-0.0145 0.0091,-0.0145 0.0091,-0.0145 0.0091,-0.0147 0.0091,-0.0145 0.0091,-0.0145 0.0091,-0.0145 0.0091,-0.0145 0.0091,-0.0145 0.0091,-0.0145 0.0091,-0.0147 0.0091,-0.0145 0.0091,-0.0145 0.0091,-0.0145 0.0091,-0.0145 0.0091,-0.0145 0.0091,-0.0145 0.0091,-0.0147 0.0091,-0.0145 0.0091,-0.0145 0.0091,-0.0145 0.0091,-0.0145 0.0091,-0.0145 0.0091,-0.0145 0.0091,-0.0147 0.0091,-0.0145 0.0091,-0.0145 0.0091,-0.0145 0.0091,-0.0145 0.0091,-0.0145 0.0091,-0.0145 0.0091,-0.0147 0.0091,-0.0145 0.0091,-0.0145 0.0091,-0.0145 0.0091,-0.0145 0.0091,-0.0145 0.0091,-0.0145 0.0091,-0.0147 0.0091,-0.0145 0.0091,-0.0145 0.0091,-0.0145 0.0091,-0.0145 0.0091,-0.0145 0.0091,-0.0145 0.0091,-0.0147 0.0091,-0.0145 0.0091,-0.0145 h 0.0091 l 0.0091,0.0145 0.0091,0.0145 0.0091,0.0147 0.0091,0.0145 0.0091,0.0145 0.0091,0.0145 0.0091,0.0145 0.0091,0.0145 0.0091,0.0145 0.0091,0.0147 0.0091,0.0145 0.0091,0.0145 0.0091,0.0145 0.0091,0.0145 0.0091,0.0145 0.0091,0.0145 0.0091,0.0147 0.0091,0.0145 0.0091,0.0145 0.0091,0.0145 0.0091,0.0145 0.0091,0.0145 0.0091,0.0145 0.0091,0.0147 0.0091,0.0145 0.0091,0.0145 0.0091,0.0145 0.0091,0.0145 0.0091,0.0145 0.0091,0.0145 0.0091,0.0147 0.0091,0.0145 0.0091,0.0145 0.0091,0.0145 0.0091,0.0145 0.0091,0.0145 0.0091,0.0145 0.0091,0.0147 0.0091,0.0145 0.0091,0.0145 0.0091,0.0145 0.0091,0.0145 0.0091,0.0145 0.0091,0.0145 0.0091,0.0147 0.0091,0.0145 0.0091,0.0145 0.0091,0.0145 0.0091,0.0145 0.0091,0.0145 0.0091,0.0145 0.0091,0.0147 0.0091,0.0145 0.0091,0.0145 0.0091,0.0145 0.0091,0.0145 0.0091,0.0145 0.0091,0.0145 0.0091,0.0147 0.0091,0.0145 0.0091,0.0145 0.0091,0.0145 0.0091,0.0145 0.0091,0.0145 0.0091,0.0145 0.0091,0.0147 0.0091,0.0145 0.0091,0.0145 0.0091,0.0145 0.0091,0.0145 0.0091,0.0145 0.0091,0.0145 0.0091,0.0147 0.0091,0.0145 0.0091,0.0145 0.0091,0.0145 0.0091,0.0145 0.0091,0.0145 0.0091,0.0145 0.0091,0.0147 0.0091,0.0145 0.0091,0.0145 0.0091,0.0145 0.0091,0.0145 0.0091,0.0145 0.0091,0.0145 0.0091,0.0147 0.0091,0.0145 0.0091,0.0145 0.0091,0.0145 0.0091,0.0145 0.0091,0.0145 0.0091,0.0145 0.0091,0.0147 0.0091,0.0145 0.0091,0.0145 0.0091,0.0145 0.0091,0.0145 0.0091,0.0145 0.0091,0.0147 0.0091,0.0145 0.0091,0.0145 0.0091,0.0145 0.0091,0.0145 0.0091,0.0145 0.0091,0.0145 0.0091,0.0147 0.0091,0.0145 0.0091,0.0145 0.0091,0.0145 0.0091,0.0145 0.0091,0.0145 0.0091,0.0145 0.0091,0.0147 0.0091,0.0145 0.0091,0.0145 0.0091,0.0145 0.0091,0.0145 0.0091,0.0145 0.0091,0.0145 0.0091,0.0147 0.0091,0.0145 0.0091,0.0145 0.0091,0.0145 0.0091,0.0145 0.0091,0.0145 0.0091,0.0145 0.0091,0.0147 0.0091,0.0145 0.0091,0.0145 0.0091,0.0145 0.0091,0.0145 0.0091,0.0145 0.0091,0.0145 0.0091,0.0147 0.0091,0.0145 0.0091,0.0145 0.0091,0.0145 0.0091,0.0145 0.0091,0.0145 0.0091,0.0145 0.0091,0.0147 0.0091,0.0145 0.0091,0.0145 0.0091,0.0145 0.0091,0.0145 0.0091,0.0145 0.0091,0.0145 0.0091,0.0147 0.0091,0.0145 0.0091,0.0145 0.0091,0.0145 0.0091,0.0145 0.0091,0.0145 0.0091,0.0145 0.0091,0.0147 0.0091,0.0145 0.0091,0.0145 0.0091,0.0145 0.0091,0.0145 0.0091,0.0145 0.0091,0.0145 0.0091,0.0147 0.0091,0.0145 0.0091,0.0145 0.0091,0.0145 0.0091,0.0145 0.0091,0.0145 0.0091,0.0145 0.0091,0.0147 0.0091,0.0145 0.0091,0.0145 0.0091,0.0145 0.0091,0.0145 0.0091,0.0145 0.0091,0.0145 0.0091,0.0147 0.0091,0.0145 0.0091,0.0145 0.0091,0.0145 0.0091,0.0145 0.0091,0.0145 0.0091,0.0145 0.0091,0.0147 0.0091,0.0145 0.0091,0.0145 0.0091,0.0145 0.0091,0.0145 0.0091,0.0145 0.0091,0.0145 0.0091,0.0147 0.0091,0.0145 0.0091,0.0145 0.0091,0.0145 0.0091,0.0145 0.0091,0.0145 0.0091,0.0145 0.0091,0.0147 0.0091,0.0145 0.0091,0.0145 0.0091,0.0145 0.0091,0.0145 0.0091,0.0145 0.0091,0.0147 0.0091,0.0145 0.0091,0.0145 0.0091,0.0145 0.0091,0.0145 0.0091,0.0145 0.0091,0.0145 0.0091,0.0147 0.0091,0.0145 0.0091,0.0145 0.0091,0.0145 0.0091,0.0145 0.0091,0.0145 0.0091,0.0145 0.0091,0.0147 0.0091,0.0145 0.0091,0.0145 0.0091,0.0145 0.0091,0.0145 0.0091,0.0145 0.0091,0.0145 0.0091,0.0147 0.0091,0.0145 0.0091,0.0145 0.0091,0.0145 0.0091,0.0145 0.0091,0.0145 0.0091,0.0145 0.0091,0.0147 0.0091,0.0145 0.0091,0.0145 0.0091,0.0145 0.0091,0.0145 0.0091,0.0145 0.0091,0.0145 0.0091,0.0147 0.0091,0.0145 0.0091,0.0145 0.0091,0.0145 0.0091,0.0145 0.0091,0.0145 0.0091,0.0145 0.0091,0.0147 2.8484,-3.53818"
       stroke="#008000"
       stroke-width="0.0520898"
       fill="none"
       id="path2-8"
       style="fill:none;stroke-width:0.569334;stroke-dasharray:none" />
    <path
       d="m -36.10992,103.69388 0.0157,-0.0201 0.0157,-0.0203 0.0157,-0.0201 0.0157,-0.0201 0.0157,-0.0201 0.0157,-0.0201 0.0157,-0.0201 0.0157,-0.0201 0.0157,-0.0201 0.0157,-0.0199 0.0157,-0.0201 0.0157,-0.0199 0.0157,-0.0199 0.0157,-0.0197 0.0157,-0.0199 0.0157,-0.0197 0.0157,-0.0197 0.0157,-0.0196 0.0157,-0.0197 0.0157,-0.0196 0.0157,-0.0194 0.0157,-0.0194 0.0157,-0.0194 0.0157,-0.0194 0.0157,-0.0192 0.0157,-0.019 0.0157,-0.019 0.0157,-0.019 0.0157,-0.0188 0.0157,-0.0187 0.0157,-0.0188 0.0157,-0.0185 0.0157,-0.0185 0.0157,-0.0183 0.0157,-0.0183 0.0157,-0.0181 0.0157,-0.0181 0.0157,-0.018 0.0157,-0.0178 0.0157,-0.0178 0.0157,-0.0176 0.0157,-0.0174 0.0157,-0.0172 0.0157,-0.0172 0.0157,-0.0171 0.0157,-0.0169 0.0157,-0.0169 0.0157,-0.0165 0.0157,-0.0165 0.0157,-0.0163 0.0157,-0.0162 0.0157,-0.0162 0.0157,-0.0158 0.0157,-0.0158 0.0157,-0.0155 0.0157,-0.0155 0.0157,-0.0153 0.0157,-0.0151 0.0157,-0.0149 0.0157,-0.0147 0.0157,-0.0146 0.0157,-0.0144 0.0157,-0.0142 0.0157,-0.014 0.0157,-0.0139 0.0157,-0.0137 0.0157,-0.0135 0.0157,-0.0132 0.0157,-0.0131 0.0157,-0.013 0.0157,-0.0126 0.0157,-0.0126 0.0157,-0.0123 0.0157,-0.0121 0.0157,-0.0119 0.0157,-0.0117 0.0157,-0.0115 0.0157,-0.0112 0.0157,-0.0112 0.0157,-0.0108 0.0157,-0.0107 0.0157,-0.0103 0.0157,-0.0103 0.0157,-0.01 0.0157,-0.01 0.0157,-0.01 0.0157,-0.009 0.0157,-0.009 0.0157,-0.009 0.0157,-0.009 0.0157,-0.008 0.0157,-0.008 0.0157,-0.008 0.0157,-0.008 0.0157,-0.008 0.0157,-0.007 0.0157,-0.007 0.0157,-0.007 0.0157,-0.007 0.0157,-0.006 0.0157,-0.006 0.0157,-0.006 0.0157,-0.006 0.0157,-0.005 0.0157,-0.005 0.0157,-0.005 0.0157,-0.005 0.0157,-0.004 0.0157,-0.004 0.0157,-0.004 0.0157,-0.004 0.0157,-0.003 0.0157,-0.003 0.0157,-0.003 0.0157,-0.002 0.0157,-0.002 0.0157,-0.002 0.0157,-0.002 0.0157,-0.001 0.0157,-0.001 0.0157,-10e-4 0.0157,-8.8e-4 0.0157,-5.3e-4 0.0157,-3.6e-4 h 0.0157 l 0.0157,1.6e-4 0.0157,5.3e-4 0.0157,7.1e-4 0.0157,8.8e-4 0.0157,0.001 0.0157,0.001 0.0157,0.002 0.0157,0.002 0.0157,0.002 0.0157,0.002 0.0157,0.003 0.0157,0.003 0.0157,0.003 0.0157,0.003 0.0157,0.004 0.0157,0.004 0.0157,0.004 0.0157,0.005 0.0157,0.005 0.0157,0.005 0.0157,0.005 0.0157,0.005 0.0157,0.006 0.0157,0.006 0.0157,0.006 0.0157,0.007 0.0157,0.007 0.0157,0.007 0.0157,0.007 0.0157,0.007 0.0157,0.008 0.0157,0.008 0.0157,0.008 0.0157,0.008 0.0157,0.008 0.0157,0.009 0.0157,0.009 0.0157,0.009 0.0157,0.009 0.0157,0.01 0.0157,0.01 0.0157,0.0101 0.0157,0.0103 0.0157,0.0105 0.0157,0.0108 0.0157,0.0109 0.0157,0.0112 0.0157,0.0115 0.0157,0.0116 0.0157,0.0117 0.0157,0.0121 0.0157,0.0123 0.0157,0.0123 0.0157,0.0126 0.0157,0.0128 0.0157,0.0131 0.0157,0.0131 0.0157,0.0133 0.0157,0.0137 0.0157,0.0137 0.0157,0.014 0.0157,0.0141 0.0157,0.0144 0.0157,0.0144 0.0157,0.0148 0.0157,0.0147 0.0157,0.0149 0.0157,0.0153 0.0157,0.0153 0.0157,0.0155 0.0157,0.0157 0.0157,0.0158 0.0157,0.016 0.0157,0.0162 0.0157,0.0164 0.0157,0.0164 0.0157,0.0165 0.0157,0.0167 0.0157,0.0169 0.0157,0.0171 0.0157,0.0171 0.0157,0.0172 0.0157,0.0174 0.0157,0.0176 0.0157,0.0176 0.0157,0.0178 0.0157,0.018 0.0157,0.018 0.0157,0.0181 0.0157,0.0181 0.0157,0.0183 0.0157,0.0185 0.0157,0.0185 0.0157,0.0187 0.0157,0.0187 0.0157,0.0188 0.0157,0.0189 0.0157,0.019 0.0157,0.0192 0.0157,0.019 0.0157,0.0194 0.0157,0.0192 0.0157,0.0194 0.0157,0.0196 0.0157,0.0194 0.0157,0.0196 0.0157,0.0197 0.0157,0.0197 0.0157,0.0197 0.0157,0.0197 0.0157,0.0197 0.0157,0.0199 0.0157,0.0199 0.0157,0.0201 0.0157,0.0199 0.0157,0.0201 0.0157,0.0199 0.0157,0.0201 0.0157,0.0201 0.0157,0.0201 0.0157,0.0201 0.0157,0.0203 0.0157,0.0201 0.0157,0.0201 0.0157,0.0203 0.0157,0.0201 0.0157,0.0201 0.0157,0.0203 0.0157,0.0201 0.0157,0.0201 0.0157,0.0201 0.0157,0.0201 0.0157,0.0199 0.0157,0.0201 0.0157,0.0199 0.0157,0.0201 0.0157,0.0199 0.0157,0.0199 0.0157,0.0197 0.0157,0.0197 0.0157,0.0197 0.0157,0.0197 0.0157,0.0197 0.0157,0.0196 0.0157,0.0194 0.0157,0.0196 0.0157,0.0194 0.0157,0.0192 0.0157,0.0194 0.0157,0.019 0.0157,0.0192 0.0157,0.019 0.0157,0.0188 0.0157,0.0188 0.0157,0.0187 0.0157,0.0187 0.0157,0.0185 0.0157,0.0185 0.0157,0.0183 0.0157,0.0181 0.0157,0.0181 0.0157,0.018 0.0157,0.018 0.0157,0.0178 0.0157,0.0176 0.0157,0.0176 0.0157,0.0174 0.0157,0.0172 0.0157,0.0171 0.0157,0.0171 0.0157,0.0169 0.0157,0.0167 0.0157,0.0165 0.0157,0.0164 0.0157,0.0164 0.0157,0.0162 0.0157,0.016 0.0157,0.0158 0.0157,0.0156 0.0157,0.0155 0.0157,0.0153 0.0157,0.0153 0.0157,0.0149 0.0157,0.0147 0.0157,0.0148 0.0157,0.0144 0.0157,0.0144 0.0157,0.0141 0.0157,0.014 0.0157,0.0137 0.0157,0.0137 0.0157,0.0133 0.0157,0.0131 0.0157,0.0132 0.0157,0.0128 0.0157,0.0126 0.0157,0.0123 0.0157,0.0123 0.0157,0.0121 0.0157,0.0117 0.0157,0.0116 0.0157,0.0116 0.0157,0.0112 0.0157,0.0109 0.0157,0.0109 0.0157,0.0105 0.0157,0.0103 0.0157,0.0101 0.0157,0.01 0.0157,0.01 0.0157,0.009 0.0157,0.009 0.0157,0.009 0.0157,0.009 0.0157,0.008 0.0157,0.008 0.0157,0.008 0.0157,0.008 0.0157,0.008 0.0157,0.007 0.0157,0.007 0.0157,0.007 0.0157,0.007 0.0157,0.007 0.0157,0.006 0.0157,0.006 0.0157,0.006 0.0157,0.005 0.0157,0.005 0.0157,0.005 0.0157,0.005 0.0157,0.005 0.0157,0.004 0.0157,0.004 0.0157,0.004 0.0157,0.003 0.0157,0.003 0.0157,0.003 0.0157,0.003 0.0157,0.002 0.0157,0.002 0.0157,0.002 0.0157,0.002 0.0157,0.001 0.0157,10e-4 0.0157,8.8e-4 0.0157,7.1e-4 0.0157,5.3e-4 0.0157,1.7e-4 h 0.0157 l 0.0157,-3.7e-4 0.0157,-5.3e-4 0.0157,-8.7e-4 0.0157,-0.001 0.0157,-0.001 0.0157,-10e-4 0.0157,-0.002 0.0157,-0.002 0.0157,-0.002 0.0157,-0.002 0.0157,-0.003 0.0157,-0.003 0.0157,-0.003 0.0157,-0.004 0.0157,-0.004 0.0157,-0.004 0.0157,-0.004 0.0157,-0.005 0.0157,-0.005 0.0157,-0.005 0.0157,-0.005 0.0157,-0.006 0.0157,-0.006 0.0157,-0.006 0.0157,-0.006 0.0157,-0.007 0.0157,-0.007 0.0157,-0.007 0.0157,-0.007 0.0157,-0.008 0.0157,-0.008 0.0157,-0.008 0.0157,-0.008 0.0157,-0.008 0.0157,-0.009 0.0157,-0.009 0.0157,-0.009 0.0157,-0.009 0.0157,-0.01 0.0157,-0.01 0.0157,-0.01 0.0157,-0.0103 0.0157,-0.0103 0.0157,-0.0107 0.0157,-0.0108 0.0157,-0.0112 0.0157,-0.0112 0.0157,-0.0115 0.0157,-0.0117 0.0157,-0.0119 0.0157,-0.0121 0.0157,-0.0123 0.0157,-0.0126 0.0157,-0.0126 0.0157,-0.013 0.0157,-0.0131 0.0157,-0.0132 0.0157,-0.0135 0.0157,-0.0137 0.0157,-0.0139 0.0157,-0.014 0.0157,-0.0142 0.0157,-0.0144 0.0157,-0.0146 0.0157,-0.0147 0.0157,-0.0149 0.0157,-0.0151 0.0157,-0.0153 0.0157,-0.0155 0.0157,-0.0155 0.0157,-0.0158 0.0157,-0.0158 0.0157,-0.0162 0.0157,-0.0162 0.0157,-0.0164 0.0157,-0.0165 0.0157,-0.0165 0.0157,-0.0169 0.0157,-0.0169 0.0157,-0.0171 0.0157,-0.0172 0.0157,-0.0172 0.0157,-0.0174 0.0157,-0.0176 0.0157,-0.0178 0.0157,-0.0178 0.0157,-0.018 0.0157,-0.0181 0.0157,-0.0181 0.0157,-0.0183 0.0157,-0.0183 0.0157,-0.0185 0.0157,-0.0185 0.0157,-0.0188 0.0157,-0.0187 0.0157,-0.0188 0.0157,-0.019 0.0157,-0.019 0.0157,-0.019 0.0157,-0.0192 0.0157,-0.0194 0.0157,-0.0194 0.0157,-0.0194 0.0157,-0.0194 0.0157,-0.0196 0.0157,-0.0197 0.0157,-0.0196 0.0157,-0.0197 0.0157,-0.0197 0.0157,-0.0199 0.0157,-0.0197 0.0157,-0.0199 0.0157,-0.0199 0.0157,-0.0201 0.0157,-0.0199 0.0157,-0.0201 0.0157,-0.0201 0.0157,-0.0201 0.0157,-0.0201 0.0157,-0.0201 0.0157,-0.0201 0.0157,-0.0201 0.0157,-0.0203 0.0157,-0.0201"
       stroke="#ff0000"
       stroke-width="2"
       fill="none"
       id="path1-5"
       style="fill:#0000ff;stroke-width:0.918698;stroke-dasharray:none" />
    <path
       d="m 3.5181483,103.56066 0.01356,-1.62642 h 0.01356 0.01356 0.01356 0.01356 0.01356 0.01356 0.01356 0.01356 0.01356 0.01356 0.01356 0.01356 0.01356 0.01356 0.01356 0.01356 0.01356 0.01356 0.01356 0.01356 0.01356 0.01356 0.01356 0.01356 0.01356 0.01356 0.01356 0.01356 0.01356 0.01356 0.01356 0.01356 0.01356 0.01356 0.01356 0.01356 0.01356 0.01356 0.01356 0.01356 0.01356 0.01356 0.01356 0.01356 0.01356 0.01356 0.01356 0.01356 0.01356 0.01356 0.01356 0.01356 0.01356 0.01356 0.01356 0.01356 0.01356 0.01356 0.01356 0.01356 0.01356 0.01356 0.01356 0.01356 0.01356 0.01356 0.013561 0.01356 0.01356 0.01356 0.01356 0.01356 0.01356 0.01356 0.01356 0.01356 0.01356 0.01356 0.01356 0.01356 0.01356 0.01356 0.01356 0.01356 0.01356 0.01356 0.01356 0.01356 0.01356 0.01356 0.01356 0.01356 0.01356 0.01356 0.01356 0.01356 0.01356 0.01356 0.01356 0.01356 0.01356 0.01356 0.01356 0.01356 0.01356 0.01356 0.01356 0.01356 0.01356 0.01356 0.01356 0.01356 0.01356 0.01356 0.01356 0.01356 0.01356 0.01356 0.01356 0.01356 0.01356 0.013561 0.01356 0.01356 0.01356 0.01356 0.01356 0.01356 0.01356 0.01356 0.01356 0.01356 0.01356 0.01356 0.01356 0.01356 0.01356 0.01356 0.01356 0.01356 0.01356 0.01356 0.01356 0.01356 0.01356 0.01356 0.01356 0.01356 0.01356 0.01356 0.01356 0.01356 0.01356 0.01356 0.01356 0.01356 0.01356 0.01356 0.01356 0.01356 0.01356 0.01356 0.01356 0.01356 0.01356 0.01356 0.01356 0.01356 0.01356 0.01356 0.01356 0.01356 0.01356 0.01356 0.01356 0.01356 0.01356 0.01356 0.01356 0.01356 0.01356 0.01356 0.01356 0.01356 0.01356 0.01356 0.01356 0.01356 0.01356 0.01356 0.01356 0.01356 0.01356 0.01356 0.01356 0.01356 0.01356 0.01356 0.01356 0.01356 0.01356 0.01356 0.01356 0.01356 0.01356 0.01356 0.01356 0.01356 0.01356 0.01356 0.01356 0.01356 0.01356 0.01356 0.01356 0.01356 0.01356 0.01356 0.01356 0.01356 0.01356 0.01356 0.01356 0.01356 0.01356 0.01356 0.01356 0.01356 0.01356 0.01356 0.01356 0.01356 0.01356 0.01356 0.01356 0.01356 0.01356 0.01356 0.01356 0.01356 0.01356 0.01356 0.01356 0.01356 0.01356 0.01356 0.01356 0.01356 l 0.01356,3.25284 h 0.01356 0.01356 0.01356 0.01356 0.01356 0.01356 0.01356 0.01356 0.01356 0.01356 0.01356 0.01356 0.01356 0.01356 0.01356 0.01356 0.01356 0.01356 0.01356 0.01356 0.01356 0.01356 0.01356 0.01356 0.01356 0.01356 0.01356 0.01356 0.01356 0.01356 0.01356 0.01356 0.01356 0.01356 0.01356 0.01356 0.01356 0.01356 0.01356 0.01356 0.01356 0.01356 0.01356 0.01356 0.01356 0.01356 0.01356 0.01356 0.01356 0.01356 0.01356 0.01356 0.01356 0.01356 0.01356 0.01356 0.01356 0.01356 0.01356 0.01356 0.01356 0.01356 0.01356 0.01356 0.01356 0.01356 0.01356 0.01356 0.01356 0.01356 0.01356 0.01356 0.01356 0.01356 0.01356 0.01356 0.01356 0.01356 0.01356 0.01356 0.01356 0.01356 0.01356 0.01356 0.01356 0.01356 0.01356 0.01356 0.01356 0.01356 0.01356 0.01356 0.01356 0.01356 0.01356 0.01356 0.01356 0.01356 0.01356 0.01356 0.01356 0.01356 0.01356 0.01356 0.01356 0.01356 0.01356 0.01356 0.01356 0.01356 0.01356 0.01356 0.01356 0.01356 0.01356 0.01356 0.01356 0.01356 0.01356 0.01356 0.01356 0.01356 0.01356 0.01356 0.01356 0.01356 0.01356 0.01356 0.01356 0.01356 0.01356 0.01356 0.01356 0.01356 0.01356 0.01356 0.01356 0.01356 0.01356 0.013559 0.01356 0.01356 0.01356 0.01356 0.01356 0.01356 0.01356 0.01356 0.01356 0.01356 0.01356 0.01356 0.01356 0.01356 0.01356 0.01356 0.01356 0.01356 0.01356 0.01356 0.01356 0.01356 0.01356 0.01356 0.01356 0.01356 0.01356 0.01356 0.01356 0.01356 0.01356 0.01356 0.01356 0.01356 0.01356 0.01356 0.01356 0.01356 0.01356 0.01356 0.01356 0.01356 0.01356 0.01356 0.01356 0.01356 0.01356 0.01356 0.01356 0.01356 0.01356 0.01356 0.01356 0.01356 0.01356 0.01356 0.01356 0.01356 0.01356 0.01356 0.01356 0.01356 0.01356 0.01356 0.01356 0.01356 0.01356 0.01356 0.01356 0.01356 0.01356 0.01356 0.01356 0.01356 0.01356 0.01356 0.01356 0.01356 0.01356 0.01356 0.01356 0.01356 0.01356 0.01356 0.01356 0.01356 0.01356 0.01356 0.01356 0.01356 0.01356 0.01356 0.01356 0.01356 0.01356 0.01356 0.01356 0.01356 0.01356 0.01356 0.01356 0.01356 0.01356 0.01356 0.01356 0.01356 0.01356 l 0.01356,-3.24726 h 0.01356"
       stroke="#0000ff"
       stroke-width="0.59381"
       fill="none"
       id="path3-7"
       style="fill:none;stroke-width:0.598369;stroke-dasharray:none" />
    <path
       d="m -27.135854,97.017278 -1.457189,3.989822 h -1.544402 l -0.970248,-2.599151 -0.944811,2.599151 h -1.544402 l -1.45719,-3.989822 h 1.45719 l 0.83216,2.746518 0.995685,-2.746518 h 1.39178 l 0.948444,2.746518 0.872133,-2.746518 z m 3.360536,3.204722 v -0.627015 q -0.265274,0.0161 -0.574154,0.0455 -0.308881,0.0268 -0.468772,0.0643 -0.19623,0.0455 -0.301613,0.133972 -0.101753,0.0858 -0.101753,0.227763 0,0.0938 0.02181,0.15274 0.02181,0.0589 0.109009,0.11254 0.08358,0.0536 0.199864,0.0804 0.116292,0.0241 0.363389,0.0241 0.19623,0 0.396094,-0.059 0.203497,-0.0589 0.356121,-0.15542 z m 0,0.46623 q -0.105388,0.0589 -0.261639,0.14202 -0.156258,0.0831 -0.294346,0.13129 -0.192595,0.0643 -0.399727,0.0938 -0.207132,0.0322 -0.454236,0.0322 -0.581423,0 -0.973882,-0.26527 -0.39246,-0.26527 -0.39246,-0.67792 0,-0.329583 0.199863,-0.538585 0.199864,-0.209005 0.566888,-0.329589 0.363388,-0.120578 0.901203,-0.171489 0.537815,-0.05091 1.115603,-0.07503 v -0.01608 q 0,-0.249195 -0.276174,-0.342978 -0.276176,-0.09646 -0.813991,-0.09646 -0.323417,0 -0.690439,0.08574 -0.367023,0.08307 -0.526914,0.128617 h -0.119912 v -0.72615 q 0.207132,-0.04019 0.672268,-0.09378 0.468773,-0.05627 0.937544,-0.05627 1.115603,0 1.609812,0.254555 0.497842,0.251875 0.497842,0.793138 v 2.047161 h -1.297303 z m 6.641936,-2.690247 -1.573472,3.009117 h -1.482627 l -1.562571,-3.009117 h 1.38451 l 0.944812,2.068597 0.933909,-2.068597 z m 4.777751,1.682743 h -2.994322 q 0.02908,0.353704 0.363389,0.541274 0.33795,0.18756 0.99205,0.18756 0.414264,0 0.803089,-0.10986 0.388826,-0.10986 0.614128,-0.2358 h 0.145355 v 0.77439 q -0.443334,0.13129 -0.835795,0.19024 -0.392459,0.0589 -0.868498,0.0589 -1.228253,0 -1.882353,-0.40729 -0.6541,-0.40728 -0.6541,-1.160236 0,-0.74491 0.617761,-1.178993 0.621395,-0.436762 1.700659,-0.436762 0.995684,0 1.497161,0.372454 0.501476,0.369774 0.501476,1.066447 z m -1.30093,-0.565383 q -0.01085,-0.302786 -0.203499,-0.455519 -0.192595,-0.152732 -0.599592,-0.152732 -0.377924,0 -0.621394,0.144694 -0.243471,0.144694 -0.272541,0.463557 z m 8.7814861,-1.326363 h -2.4892127 v 0.742227 h 2.3075185 v 0.771703 h -2.3075185 v 1.70419 h -1.388145 v -3.989822 h 3.8773577 z m 5.09389908,1.714894 q 0,0.742236 -0.5886905,1.170966 -0.5850559,0.42604 -1.64615068,0.42604 -1.0610947,0 -1.6497852,-0.42604 -0.5850559,-0.42873 -0.5850559,-1.170966 0,-0.747587 0.5886904,-1.173631 0.5923237,-0.426044 1.6461507,-0.426044 1.06836248,0 1.64978528,0.428724 0.5850559,0.428723 0.5850559,1.170951 z m -1.60981208,0.731516 q 0.1271816,-0.11522 0.188962,-0.275992 0.065408,-0.163451 0.065408,-0.450164 0,-0.265274 -0.065408,-0.444802 -0.065408,-0.179528 -0.1816943,-0.286709 -0.1162916,-0.10986 -0.2798091,-0.155412 -0.1635257,-0.04555 -0.3524877,-0.04555 -0.188962,0 -0.3379508,0.03751 -0.1453557,0.03751 -0.2798105,0.150053 -0.1199126,0.104501 -0.1925952,0.286709 -0.069043,0.182207 -0.069043,0.458201 0,0.246522 0.061774,0.428724 0.061774,0.179532 0.1816942,0.289392 0.1162781,0.1045 0.2761746,0.15274 0.1635257,0.0482 0.3706576,0.0482 0.1780598,0 0.3379509,-0.0429 0.1635256,-0.0456 0.2761759,-0.15006 z M 4.1462474,98.917059 H 4.0299558 q -0.083581,-0.02144 -0.2689083,-0.03216 -0.1853274,-0.01072 -0.30888,-0.01072 -0.2798091,0 -0.4942088,0.02679 -0.2143996,0.0268 -0.4615034,0.0911 v 2.015011 H 1.1882622 v -3.009097 h 1.3081999 v 0.442121 q 0.4324325,-0.273311 0.7522148,-0.361736 0.3197822,-0.0911 0.5886891,-0.0911 0.069043,0 0.156258,0.0027 0.087215,0.0027 0.1526234,0.008 z m 4.7632172,-0.04287 V 101.0071 H 7.593997 v -1.503216 q 0,-0.219728 -0.014538,-0.372461 -0.014538,-0.155412 -0.079946,-0.251875 -0.065408,-0.09646 -0.1998642,-0.139335 -0.1308162,-0.04555 -0.3706563,-0.04555 -0.1925965,0 -0.3742908,0.05895 -0.1816943,0.05627 -0.3270499,0.120578 V 101.0071 H 4.9194556 v -3.009117 h 1.3081998 v 0.33226 q 0.3379522,-0.195605 0.6468322,-0.305465 0.30888,-0.109861 0.6831708,-0.109861 0.4033617,0 0.7122417,0.133977 0.30888,0.131296 0.4833065,0.38853 0.3924608,-0.243836 0.763117,-0.383171 0.3706563,-0.139336 0.7267774,-0.139336 0.661367,0 1.002953,0.292068 0.34522,0.292068 0.34522,0.84137 v 1.958745 h -1.315468 v -1.503226 q 0,-0.222401 -0.01454,-0.375133 -0.01085,-0.152733 -0.07631,-0.249196 -0.06177,-0.09646 -0.1962296,-0.139335 -0.1344507,-0.04555 -0.377924,-0.04555 -0.1635257,0 -0.3197822,0.04287 -0.156258,0.04019 -0.3815586,0.136655 z"
       id="text2"
       style="font-weight:738;font-size:5.48766px;line-height:2.7;font-family:'.CJK Symbols Fallback MO';-inkscape-font-specification:'.CJK Symbols Fallback MO weight=738';text-align:center;letter-spacing:0.0235185px;text-anchor:middle;stroke-width:0.342355"
       aria-label="Wave Form" />
    <path
       d="m -20.71196,35.398406 q 0,0.267952 -0.127185,0.525186 -0.127186,0.254554 -0.363389,0.428723 -0.323416,0.235797 -0.723142,0.356375 -0.396094,0.120578 -0.988416,0.120578 h -0.868498 v 1.299566 H -25.178 v -3.989801 h 2.296613 q 0.516011,0 0.868497,0.06699 0.356121,0.06431 0.628662,0.195605 0.327049,0.158092 0.497842,0.404607 0.174426,0.246516 0.174426,0.592174 z m -1.442651,0.02411 q 0,-0.168809 -0.123552,-0.289387 -0.123552,-0.123258 -0.287076,-0.17149 -0.218034,-0.06431 -0.425165,-0.06967 -0.207131,-0.0081 -0.552349,-0.0081 h -0.239837 v 1.195064 h 0.399727 q 0.356121,0 0.585055,-0.03216 0.232569,-0.03215 0.388825,-0.128617 0.134454,-0.08574 0.192596,-0.203643 0.06178,-0.120578 0.06178,-0.292068 z m 3.698482,2.706313 h -1.308197 V 35.11973 h 1.308197 z m 0.03633,-3.437821 h -1.380875 V 33.9595 h 1.380875 z m 3.840204,3.411026 q -0.210766,0.0402 -0.446968,0.06163 -0.236202,0.02411 -0.577787,0.02411 -0.763115,0 -1.137405,-0.227759 -0.370656,-0.227759 -0.370656,-0.77974 v -1.406746 h -0.537814 v -0.653803 h 0.537814 v -0.860125 h 1.308197 v 0.860125 h 1.224619 v 0.653803 h -1.224619 v 1.066448 q 0,0.158091 0.0036,0.27599 0.0036,0.117899 0.05815,0.211681 0.05088,0.09378 0.178059,0.150054 0.130821,0.05359 0.377925,0.05359 0.101746,0 0.265273,-0.03216 0.167158,-0.03216 0.232568,-0.05895 h 0.109013 z m 2.939,0.10718 q -0.534181,0 -0.977514,-0.09378 -0.4397,-0.09378 -0.766749,-0.289388 -0.323416,-0.195605 -0.501476,-0.493031 -0.178061,-0.297426 -0.178061,-0.696674 0,-0.420685 0.188962,-0.726149 0.192596,-0.305466 0.534181,-0.50643 0.330683,-0.190245 0.763115,-0.278669 0.432432,-0.08843 0.897569,-0.08843 0.417896,0 0.770383,0.06699 0.352487,0.06699 0.657733,0.174169 v 0.822611 h -0.185328 q -0.07631,-0.04823 -0.185328,-0.112539 -0.105382,-0.06431 -0.26164,-0.125938 -0.148989,-0.05895 -0.327049,-0.09646 -0.17806,-0.0402 -0.414263,-0.0402 -0.523279,0 -0.806721,0.246516 -0.279809,0.243836 -0.279809,0.66452 0,0.434082 0.287076,0.659161 0.290711,0.22508 0.821258,0.22508 0.247104,0 0.443333,-0.0402 0.199864,-0.04288 0.330683,-0.09914 0.123552,-0.05359 0.218033,-0.11254 0.09448,-0.05895 0.174427,-0.115219 h 0.185328 v 0.822611 q -0.30888,0.107181 -0.646831,0.16881 -0.334317,0.06431 -0.741312,0.06431 z m 6.3839207,-0.08038 H -6.572131 v -1.492491 q 0,-0.182207 -0.025437,-0.361735 -0.025437,-0.182206 -0.087213,-0.267951 -0.072678,-0.09914 -0.2143991,-0.144694 -0.1380875,-0.04556 -0.3888253,-0.04556 -0.1780603,0 -0.3633882,0.04288 -0.1816941,0.04288 -0.3960932,0.136655 v 2.132896 h -1.3081974 v -4.169328 h 1.3081974 v 1.49249 q 0.3488527,-0.200964 0.6686342,-0.308144 0.3234155,-0.107181 0.7158748,-0.107181 0.6613665,0 1.0320224,0.284029 0.3742899,0.284029 0.3742899,0.849407 z"
       id="text5"
       style="font-weight:738;font-size:6.39063px;line-height:2.7;font-family:'.CJK Symbols Fallback MO';-inkscape-font-specification:'.CJK Symbols Fallback MO weight=738';text-align:center;letter-spacing:0.0273884px;text-anchor:middle;stroke-width:0.342355"
       aria-label="Pitch" />
    <path
       d="m -20.499815,141.18086 q 0,1.11087 -0.636568,1.76616 -0.636567,0.65217 -1.759922,0.65217 -1.120234,0 -1.756802,-0.65217 -0.636567,-0.65529 -0.636567,-1.76616 0,-1.12024 0.636567,-1.76929 0.636568,-0.65217 1.756802,-0.65217 1.117114,0 1.756802,0.65217 0.639688,0.64905 0.639688,1.76929 z m -1.588299,1.1764 q 0.174744,-0.21219 0.258996,-0.49927 0.08425,-0.2902 0.08425,-0.68025 0,-0.41814 -0.09673,-0.71146 -0.09673,-0.29332 -0.252755,-0.47431 -0.159141,-0.18722 -0.36821,-0.27147 -0.205949,-0.0843 -0.43062,-0.0843 -0.227791,0 -0.430619,0.0811 -0.199707,0.0811 -0.368211,0.26835 -0.156021,0.17475 -0.255875,0.48367 -0.09673,0.3058 -0.09673,0.71146 0,0.41501 0.09361,0.70833 0.09673,0.2902 0.252755,0.47431 0.156021,0.18411 0.36509,0.27148 0.209069,0.0874 0.43998,0.0874 0.230912,0 0.439981,-0.0874 0.209069,-0.0905 0.36509,-0.27772 z m 5.959325,1.1452 h -1.123354 v -0.38694 q -0.312043,0.23716 -0.571039,0.36197 -0.258996,0.1217 -0.617845,0.1217 -0.5804,0 -0.895563,-0.33389 -0.312043,-0.33388 -0.312043,-0.98605 v -2.28104 h 1.129595 v 1.73808 q 0,0.26524 0.0156,0.4431 0.01872,0.17475 0.08113,0.2902 0.05929,0.11546 0.177864,0.16851 0.121697,0.053 0.337006,0.053 0.14354,0 0.318284,-0.053 0.174744,-0.0531 0.337007,-0.15602 v -2.48387 h 1.123354 z m 3.328803,-0.0312 q -0.180985,0.0468 -0.383812,0.0718 -0.202828,0.0281 -0.496149,0.0281 -0.65529,0 -0.976694,-0.26524 -0.318284,-0.26524 -0.318284,-0.90805 v -1.63822 h -0.461824 v -0.76139 h 0.461824 v -1.00165 h 1.123355 v 1.00165 h 1.051584 v 0.76139 h -1.051584 v 1.24193 q 0,0.18411 0.0031,0.3214 0.0031,0.1373 0.04993,0.24652 0.04369,0.10921 0.152901,0.17474 0.112335,0.0624 0.324525,0.0624 0.08737,0 0.227791,-0.0374 0.14354,-0.0375 0.199707,-0.0686 h 0.09361 z m 6.8073868,-3.14851 q 0,0.31204 -0.1092151,0.6116 -0.109215,0.29644 -0.3120429,0.49927 -0.2777183,0.2746 -0.6209655,0.41502 -0.3401268,0.14042 -0.8487569,0.14042 h -0.7457826 v 1.51341 h -1.198245 v -4.64632 h 1.9721115 q 0.443101,0 0.7457827,0.078 0.3058021,0.0749 0.5398343,0.22779 0.2808387,0.1841 0.4274988,0.47118 0.1497807,0.28708 0.1497807,0.68962 z m -1.2388106,0.0281 q 0,-0.19658 -0.1060946,-0.337 -0.1060946,-0.14354 -0.2465139,-0.19971 -0.1872258,-0.0749 -0.3650903,-0.0811 -0.1778645,-0.009 -0.4743053,-0.009 h -0.2059483 v 1.39171 h 0.3432472 q 0.3058021,0 0.5023892,-0.0375 0.1997075,-0.0374 0.3338859,-0.14978 0.1154559,-0.0999 0.1653828,-0.23715 0.053047,-0.14042 0.053047,-0.34013 z m 5.5443077,3.15164 h -1.1233546 v -0.38694 q -0.312043,0.23716 -0.5710386,0.36197 -0.2589957,0.1217 -0.6178451,0.1217 -0.5803999,0 -0.8955633,-0.33389 -0.3120429,-0.33388 -0.3120429,-0.98605 v -2.28104 h 1.1295955 v 1.73808 q 0,0.26524 0.015602,0.4431 0.018723,0.17475 0.081131,0.2902 0.059288,0.11546 0.1778645,0.16851 0.1216967,0.053 0.3370064,0.053 0.1435397,0 0.3182838,-0.053 0.1747441,-0.0531 0.3370064,-0.15602 v -2.48387 h 1.1233546 z m 3.3288031,-0.0312 q -0.1809849,0.0468 -0.3838129,0.0718 -0.2028279,0.0281 -0.49614826,0.0281 -0.65529022,0 -0.97669446,-0.26524 -0.31828382,-0.26524 -0.31828382,-0.90805 v -1.63822 h -0.46182358 v -0.76139 h 0.46182358 v -1.00165 h 1.12335465 v 1.00165 H 1.641701 v 0.76139 H 0.59011621 v 1.24193 q 0,0.18411 0.00312,0.3214 0.00312,0.1373 0.0499269,0.24652 0.043686,0.10921 0.15290105,0.17474 0.11233547,0.0624 0.32452464,0.0624 0.087372,0 0.2277914,-0.0374 0.1435398,-0.0375 0.1997075,-0.0686 h 0.093613 z"
       id="text1"
       style="font-weight:738;font-size:6.39064px;line-height:2.7;font-family:'.CJK Symbols Fallback MO';-inkscape-font-specification:'.CJK Symbols Fallback MO weight=738';text-align:center;letter-spacing:0.0273884px;text-anchor:middle;stroke-width:0.342355"
       transform="scale(1.1645472,0.85870284)"
       aria-label="Out Put" />
  </g>
  <g
     id="layer2"
     transform="translate(14.485294)">
    <path
       style="fill:#1a1a1a;stroke-width:0.107867"
       id="path4"
       d="m 2.9498823,113.70158 a 2.2222223,2.2222223 0 0 1 -2.33311097,2.06416 2.2222223,2.2222223 0 0 1 -2.10456703,-2.29673 2.2222223,2.2222223 0 0 1 2.25965205,-2.14433 2.2222223,2.2222223 0 0 1 2.18343895,2.22188 H 0.73307335 Z" />
    <path
       style="fill:#1a1a1a;stroke-width:0.107867"
       id="path3"
       d="m 17.169534,113.70158 a 2.2222223,2.2222223 0 0 1 -2.333111,2.06416 2.2222223,2.2222223 0 0 1 -2.104566,-2.29673 2.2222223,2.2222223 0 0 1 2.259651,-2.14433 2.2222223,2.2222223 0 0 1 2.18344,2.22189 h -2.222223 z" />
    <path
       style="fill:#1a1a1a;stroke-width:0.107867"
       id="path2"
       d="m 15.198778,27.932792 a 2.2222223,2.2222223 0 0 1 -2.333111,2.064159 2.2222223,2.2222223 0 0 1 -2.104566,-2.296728 2.2222223,2.2222223 0 0 1 2.259651,-2.144329 2.2222223,2.2222223 0 0 1 2.18344,2.221884 h -2.222223 z" />
    <path
       style="fill:#ff0000;stroke-width:0.0539335"
       id="path1"
       d="m 13.734221,12.17816 a 1.1111111,1.1111109 0 0 1 -1.166556,1.032081 1.1111111,1.1111109 0 0 1 -1.052282,-1.148365 1.1111111,1.1111109 0 0 1 1.129825,-1.072166 1.1111111,1.1111109 0 0 1 1.09172,1.110942 h -1.111112 z" />
    <path
       style="fill:#1a1a1a;stroke-width:0.107867"
       id="path15"
       d="m 30.484134,113.81396 a 2.2222223,2.2222223 0 0 1 -2.333111,2.06416 2.2222223,2.2222223 0 0 1 -2.104566,-2.29673 2.2222223,2.2222223 0 0 1 2.259651,-2.14432 2.2222223,2.2222223 0 0 1 2.18344,2.22188 h -2.222223 z" />
  </g>
</svg>
